<svg fill="none" height="35" viewBox="0 0 150 35" width="150" xmlns="http://www.w3.org/2000/svg"><path d="m17.2081 35-15.25819-2.7568c-1.072121 0-1.94991-.8788-1.94991-1.9535v-17.7871c0-1.0741.877789-1.9535 1.94991-1.9535l15.25819-2.7568c1.0728 0 1.9499.87942 1.9499 1.95353v23.30067c0 1.0741-.8771 1.9535-1.9499 1.9535z" fill="#40bb6a"/><path d="m24.9854.00006795-15.25815 2.75679205c-1.07212 0-1.94991.87876-1.94991 1.95353v3.97792l9.28946-1.67805.0701-.01258h.0707c1.513 0 2.7431 1.23237 2.7431 2.74818v16.55204l5.0347.9099c1.0728 0 1.95-.8795 1.95-1.9536v-23.3006c0-1.074112-.8772-1.95353205-1.95-1.95353205z" fill="#42b4cb"/><g fill="#393536"><path d="m51.2257 18.2834v.383c-.042 3.4262-1.6994 5.2992-5.4175 5.2992-3.9292 0-5.5025-2.0646-5.5025-5.8106v-5.0656c0-3.78814 1.5933-5.85268 5.5025-5.85268 3.6331 0 5.3965 1.85199 5.3965 5.30028v.2336h-3.1446v-.2978c0-1.6815-.7646-2.4686-2.2519-2.4686-1.9325 0-2.4209 1.1059-2.4209 3.1915v4.832c0 2.0855.4464 3.1715 2.4209 3.1715 1.5724 0 2.2309-.745 2.295-2.4907v-.4251z"/><path d="m59.8367 18.4322c-.4463-.0863-1.211-.1284-1.6143-.1284-1.7204 0-2.3579.6167-2.3579 1.7878 0 .9797.5944 1.5111 1.7634 1.5111 1.168 0 2.2088-.8082 2.2088-2.255zm.0862 4.2985c-.6806.7882-1.7856 1.2354-3.2087 1.2354-2.1668 0-3.6761-1.2775-3.6761-3.6398 0-2.5749 1.4662-4.0228 4.9501-4.0228.5525 0 1.2541.0642 1.8485.1284v-1.2996c0-1.4679-.6154-2.1066-1.8695-2.1066-1.2961 0-1.9756.5535-1.9756 2.0435h-2.5712c0-3.1505 1.5723-4.4058 4.5678-4.4058 2.7193 0 4.5678 1.1059 4.5678 4.4058v8.6412h-2.5281z"/><path d="m69.6152 23.8372c-3.6971.3831-4.5888-1.1069-4.5888-4.6815v-11.87685h2.8463v12.00415c0 1.7447.4464 2.0646 1.7425 2.0004z"/><path d="m73.8039 18.9642c0 1.9151.5094 2.4896 1.9757 2.4896 1.4662 0 1.9756-.5745 1.9756-2.4896v-3.2999c0-1.9151-.5094-2.4686-1.9756-2.4686-1.4663 0-1.9757.5535-1.9757 2.4686zm6.8187-3.2778v3.2557c0 3.5335-1.5293 5.0235-4.843 5.0235-3.3148 0-4.8441-1.49-4.8441-5.0235v-3.2557c0-3.5125 1.5293-5.0235 4.8441-5.0235 3.3137 0 4.843 1.511 4.843 5.0235z"/><path d="m85.4734 10.9184.1691 1.1491c.6165-.7881 1.7214-1.3627 3.0385-1.3627.2122 0 .4254.0221.5945.0432v2.9589c-.2542-.0421-.5514-.0642-.8707-.0642-1.3801 0-2.5491.745-2.5491 2.8096v7.2574h-2.8684v-12.7913z"/><path d="m93.8899 23.7107h-2.8684v-12.7913h2.8684zm0-14.66537h-2.8684v-2.74535h2.8684z"/><path d="m103.07 15.452c0-1.6815-.829-2.256-1.976-2.256-1.2321 0-1.9767.6387-1.9767 2.4686v2.618c0 1.7236.5745 2.4686 1.9557 2.4686 1.274 0 1.997-.6377 1.997-2.1277zm0 7.7899v-.8513c-.659.5746-1.636.8724-2.72.8724-2.7399 0-4.099-1.7457-4.099-5.0235v-2.7022c0-3.3841 1.8685-4.8741 4.184-4.8741 1.232 0 2.082.3399 2.657.8934l.084-.6388h2.74v12.0684c0 3.725-1.827 5.0446-4.864 5.0446-3.3148 0-4.4828-1.469-4.5468-3.8734h2.7402c.0641.9786.5315 1.5531 1.8906 1.5531 1.36 0 1.934-.6597 1.934-2.4686z"/><path d="m111.064 10.9184.169 1.1491c.617-.7881 1.722-1.3627 3.039-1.3627.212 0 .425.0221.594.0432v2.9589c-.254-.0421-.551-.0642-.87-.0642-1.38 0-2.549.745-2.549 2.8096v7.2574h-2.869v-12.7913z"/><path d="m119.099 18.9642c0 1.9151.509 2.4896 1.976 2.4896 1.466 0 1.975-.5745 1.975-2.4896v-3.2999c0-1.9151-.509-2.4686-1.975-2.4686-1.467 0-1.976.5535-1.976 2.4686zm6.818-3.2778v3.2557c0 3.5335-1.529 5.0235-4.842 5.0235-3.315 0-4.845-1.49-4.845-5.0235v-3.2557c0-3.5125 1.53-5.0235 4.845-5.0235 3.313 0 4.842 1.511 4.842 5.0235z"/><path d="m135.059 22.8376c-.722.745-1.657 1.128-3.164 1.128-2.635 0-3.718-1.5111-3.718-4.5974v-8.4496h2.867v8.1508c0 1.6605.425 2.3844 1.849 2.3844 1.211 0 1.912-.6597 1.912-2.1487v-8.3865h2.868v12.7913h-2.485z"/><path d="m143.182 19.1761c0 1.6816.829 2.2561 1.976 2.2561 1.232 0 1.975-.6387 1.975-2.4686v-3.3199c0-1.7247-.573-2.4697-1.954-2.4697-1.275 0-1.997.6388-1.997 2.1288zm-.022 3.8955v4.7468h-2.847v-16.9004h2.508l.128.8513c.636-.724 1.72-1.107 2.952-1.107 2.74 0 4.099 1.7457 4.099 5.0235v3.4051c0 3.3841-1.868 4.8741-4.184 4.8741-1.232 0-2.083-.3399-2.656-.8934z"/></g></svg>