<svg xmlns="http://www.w3.org/2000/svg" viewBox="0 0 708.6612 308.126"><defs><style>.cls-1{fill:none;}.cls-2{fill:#1d1d1b;}.cls-3{fill:#3679bc;}</style></defs><g id="Logobox"><rect class="cls-1" width="708.6612" height="308.126"/></g><g id="Wortmarke_und_Claim" data-name="Wortmarke und Claim"><path class="cls-2" d="M61.7305,252.7466V215.6411h3.9824v11.545a22.2642,22.2642,0,0,1,7.6123-1.5635c7.1592,0,11.1924,4.6894,11.1924,13.1084,0,11.4951-6.3018,15.3769-13.209,15.3769A26.9789,26.9789,0,0,1,61.7305,252.7466Zm3.9824-22.4346v19.8125a21.5776,21.5776,0,0,0,5.7471.6553c6,0,9.0244-5.0918,9.0244-11.2422,0-5.6465-1.26-10.7383-7.8643-10.7383A22.0413,22.0413,0,0,0,65.7129,230.312Z" transform="translate(0.001 -0.0005)"/><path class="cls-2" d="M98.1328,226.1275h3.9834v3.68a9.1947,9.1947,0,0,1,7.8643-4.2851,10.97,10.97,0,0,1,3.2265.4541l-.6552,3.3779a12.5468,12.5468,0,0,0-3.2774-.3535c-3.3271,0-5.8476,2.37-7.1582,4.3867v20.2666H98.1328Z" transform="translate(0.001 -0.0005)"/><path class="cls-2" d="M124.1494,248.6626V226.1275h3.9326V247.604q0,3.1758,2.7217,3.1758a11.56,11.56,0,0,0,1.21-.1006l.1513,3.1758a14.7638,14.7638,0,0,1-3.0752.3027C126.0654,254.1577,124.1494,252.3433,124.1494,248.6626Zm.1514-28.7363v-4.6885h3.8818v4.6885Z" transform="translate(0.001 -0.0005)"/><path class="cls-2" d="M144.5684,226.1275h3.9834v3.1259c2.873-2.1181,5.5449-3.832,9.83-3.832,7.8145,0,8.3194,5.8477,8.3194,10.4863v17.7461h-3.8828v-16.99c0-4.7383-.7559-7.7129-5.4444-7.7129-3.5293,0-6.3525,1.6631-8.8222,3.3779v21.3252h-3.9834Z" transform="translate(0.001 -0.0005)"/><path class="cls-2" d="M182.0811,263.7368l.8066-3.5293a25.223,25.223,0,0,0,8.0664,1.462c4.0332,0,7.5117-1.3106,7.5117-7.209V251.688a9.36,9.36,0,0,1-6.7051,2.3184c-5.1933,0-11.747-1.9659-11.747-13.5108,0-10.7383,5.747-15.0742,13.6123-15.0742a41.0835,41.0835,0,0,1,8.7217,1.1592v28.7373c0,6.7051-4.5372,9.9316-11.6963,9.9316A24.1149,24.1149,0,0,1,182.0811,263.7368ZM198.415,248.31V229.6558a17.7078,17.7078,0,0,0-5.041-.7559c-7.1094,0-9.4277,4.7891-9.4277,11.3438,0,7.5625,3.125,10.5361,8.2178,10.5361A9.1781,9.1781,0,0,0,198.415,248.31Z" transform="translate(0.001 -0.0005)"/><path class="cls-2" d="M215.2568,253.0484l.6553-3.377a27.0969,27.0969,0,0,0,7.36,1.21c4.0332,0,6.6045-1.5635,6.6045-4.2862,0-6.15-13.8643-4.3857-13.8643-13.46,0-5.042,4.1846-7.7139,9.3271-7.7139a18.9089,18.9089,0,0,1,6.9073,1.3106l-.9082,3.1767a17.21,17.21,0,0,0-6.05-1.16c-3.7813,0-5.3946,1.7646-5.3946,4.0332,0,6.3017,13.7637,4.4365,13.7637,13.5615,0,5.8984-5.7978,7.916-10.6875,7.916A27.7654,27.7654,0,0,1,215.2568,253.0484Z" transform="translate(0.001 -0.0005)"/><path class="cls-2" d="M264.2139,253.0484l.6552-3.377a27.0982,27.0982,0,0,0,7.36,1.21c4.0332,0,6.6045-1.5635,6.6045-4.2862,0-6.15-13.8643-4.3857-13.8643-13.46,0-5.042,4.1846-7.7139,9.3272-7.7139a18.9087,18.9087,0,0,1,6.9072,1.3106l-.9082,3.1767a17.2093,17.2093,0,0,0-6.05-1.16c-3.7813,0-5.3945,1.7646-5.3945,4.0332,0,6.3017,13.7636,4.4365,13.7636,13.5615,0,5.8984-5.7978,7.916-10.6875,7.916A27.7646,27.7646,0,0,1,264.2139,253.0484Z" transform="translate(0.001 -0.0005)"/><path class="cls-2" d="M295.5244,226.1275h3.9824v2.2685c2.42-1.664,4.6885-2.874,8.0664-2.874,6.6045,0,10.7383,4.94,10.7383,13.915,0,11.0909-6.3017,14.7715-13.5615,14.7715a37.5631,37.5631,0,0,1-5.2432-.4541v10.9912h-3.9824Zm18.7539,13.5615c0-5.0918-1.6133-10.7383-7.5117-10.7383a13.1447,13.1447,0,0,0-7.26,2.6211v18.7549a35.84,35.84,0,0,0,5.1924.5547C311.707,250.8814,314.2783,246.1929,314.2783,239.689Z" transform="translate(0.001 -0.0005)"/><path class="cls-2" d="M329.81,246.3433c0-6.8565,6.05-8.2676,10.5371-8.3682l6.5537-.1015v-3.5284c0-4.3867-2.0674-5.4453-6.4024-5.4453a19.8915,19.8915,0,0,0-7.4619,1.3614l-.9072-3.126a22.9387,22.9387,0,0,1,8.9229-1.7139c6.05,0,9.73,2.2188,9.73,7.6123v15.2256c0,2.0674,1.6641,2.52,2.9746,2.52l-.1513,3.0752a6.895,6.895,0,0,1-1.1094.1016c-2.42,0-4.94-1.0088-5.293-3.4786a14.3915,14.3915,0,0,1-9.1758,3.63C333.0361,254.1079,329.81,251.3345,329.81,246.3433ZM346.9,247.8062V240.647l-6.6045.2519c-4.2852.1514-6.6543,2.0674-6.6543,5.294,0,3.1758,2.2686,4.6885,5.293,4.6885S344.833,249.3179,346.9,247.8062Z" transform="translate(0.001 -0.0005)"/><path class="cls-2" d="M365.5059,240.4448c0-9.8808,5.042-15.0234,13.0576-15.0234a15.36,15.36,0,0,1,7.3105,1.6641l-1.21,3.1758a15.7841,15.7841,0,0,0-6.1006-1.3614c-5.7471,0-8.9737,3.6807-8.9737,11.3438,0,6.8056,2.5206,10.5869,10.0323,10.5869a19.2051,19.2051,0,0,0,5.5967-.8574l.6044,3.2265a19.07,19.07,0,0,1-6.6044,1.06C369.8926,254.2593,365.5059,249.8218,365.5059,240.4448Z" transform="translate(0.001 -0.0005)"/><path class="cls-2" d="M396.7158,240.4448c0-10.7382,5.294-15.0234,11.999-15.0234,7.0079,0,10.1836,4.5879,10.1836,13.7637v1.4619H400.749c.1006,8.52,4.4365,10.1836,9.68,10.1836a22.7424,22.7424,0,0,0,7.3106-1.2608l.705,3.2266a23.7931,23.7931,0,0,1-8.6709,1.4629C401.7568,254.2593,396.7158,250.9312,396.7158,240.4448Zm18.0488-2.7724c0-5.5967-1.9667-9.125-6.4531-9.125-3.9834,0-7.0586,2.9746-7.5117,9.125Z" transform="translate(0.001 -0.0005)"/><path class="cls-2" d="M430.749,253.0484l.6553-3.377a27.0969,27.0969,0,0,0,7.36,1.21c4.0333,0,6.6045-1.5635,6.6045-4.2862,0-6.15-13.8642-4.3857-13.8642-13.46,0-5.042,4.1846-7.7139,9.3271-7.7139a18.9089,18.9089,0,0,1,6.9073,1.3106l-.9082,3.1767a17.21,17.21,0,0,0-6.05-1.16c-3.7813,0-5.3946,1.7646-5.3946,4.0332,0,6.3017,13.7637,4.4365,13.7637,13.5615,0,5.8984-5.7979,7.916-10.6875,7.916A27.7654,27.7654,0,0,1,430.749,253.0484Z" transform="translate(0.001 -0.0005)"/><path class="cls-2" d="M482.832,245.9907V229.5054h-4.0332v-3.3779h4.0332V220.481h3.8819v5.6465h8.6211v3.3779h-8.5713v16.334c0,3.8818,1.7646,4.94,4.9414,4.94a16.191,16.191,0,0,0,4.6377-.8066l.706,3.2773a20.5292,20.5292,0,0,1-5.8486,1.0088C486.0586,254.2593,482.832,252.4946,482.832,245.9907Z" transform="translate(0.001 -0.0005)"/><path class="cls-2" d="M506.1758,240.1929c0-9.5283,5.1426-14.7715,12.8056-14.7715,7.8145,0,11.9991,5.2432,11.9991,14.3184,0,9.9316-5.3438,14.5195-12.5537,14.5195C510.8643,254.2593,506.1758,249.2173,506.1758,240.1929Zm20.7715-.2012c0-5.1933-1.5127-11.2929-8.2686-11.2929s-8.47,6.05-8.47,11.2929c0,5.6465,2.0166,10.99,8.47,10.99C525.334,250.982,526.9473,245.3863,526.9473,239.9917Z" transform="translate(0.001 -0.0005)"/><path class="cls-2" d="M563.4014,248.6626V215.6411h3.9326V247.604q0,3.1758,2.7226,3.1758a11.5991,11.5991,0,0,0,1.21-.1006l.1514,3.1758a14.7707,14.7707,0,0,1-3.0752.3027C565.3174,254.1577,563.4014,252.3433,563.4014,248.6626Z" transform="translate(0.001 -0.0005)"/><path class="cls-2" d="M583.72,248.6626V226.1275h3.9326V247.604q0,3.1758,2.7227,3.1758a11.6013,11.6013,0,0,0,1.21-.1006l.1513,3.1758a14.7707,14.7707,0,0,1-3.0752.3027C585.6357,254.1577,583.72,252.3433,583.72,248.6626Zm.1514-28.7363v-4.6885h3.8818v4.6885Z" transform="translate(0.001 -0.0005)"/><path class="cls-2" d="M605.501,229.354h-4.0332v-3.2265h4.0332v-1.8653c0-6.706,3.9824-9.1758,8.9238-9.1758a13.2117,13.2117,0,0,1,4.2344.5547l-.7061,3.2266a11.843,11.843,0,0,0-3.4785-.4033c-3.4785,0-4.9912,1.6133-4.9912,5.747v1.9161h5.8994v3.2265h-5.8994v24.3H605.501Z" transform="translate(0.001 -0.0005)"/><path class="cls-2" d="M625.6689,240.4448c0-10.7382,5.294-15.0234,11.9991-15.0234,7.0078,0,10.1836,4.5879,10.1836,13.7637v1.4619H629.7021c.1006,8.52,4.4366,10.1836,9.68,10.1836a22.7424,22.7424,0,0,0,7.3106-1.2608l.7051,3.2266a23.7935,23.7935,0,0,1-8.6709,1.4629C630.71,254.2593,625.6689,250.9312,625.6689,240.4448Zm18.0489-2.7724c0-5.5967-1.9668-9.125-6.4532-9.125-3.9833,0-7.0585,2.9746-7.5117,9.125Z" transform="translate(0.001 -0.0005)"/><path class="cls-3" d="M426.9766,123.2446a2.4764,2.4764,0,0,1,2.4355,1.9434l2.5918,11.9492H392.9346a2.5185,2.5185,0,0,0-2.5274,2.5157v8.3457h37.89v12.125h-37.89V168.46a2.5284,2.5284,0,0,0,2.5274,2.5273h39.0693l-2.5918,11.9473a2.4747,2.4747,0,0,1-2.4355,1.9434H368.1807a10.1033,10.1033,0,0,1-10.1055-10.1036V133.3482a10.1045,10.1045,0,0,1,10.1055-10.1036Z" transform="translate(0.001 -0.0005)"/><path class="cls-3" d="M253.6992,123.2446a2.4708,2.4708,0,0,1,2.4326,1.9434l2.5948,11.9492H219.6553a2.5173,2.5173,0,0,0-2.5254,2.5157v8.3457h37.8887v12.125H217.13V168.46a2.5273,2.5273,0,0,0,2.5254,2.5273h39.0713l-2.5948,11.9473a2.4707,2.4707,0,0,1-2.4326,1.9434H194.9014a10.1022,10.1022,0,0,1-10.1035-10.1036V133.3482a10.1035,10.1035,0,0,1,10.1035-10.1036Z" transform="translate(0.001 -0.0005)"/><path class="cls-3" d="M594.4629,136.5806l-9.9512,23.543h20.6045ZM587.7,123.2446h31.98a2.619,2.619,0,0,1,2.3437,1.5665l27.9483,60.0664H616.3662l-5.7383-12.627H579.3633l-5.3653,12.627H559.6465l25.709-60.0664A2.5692,2.5692,0,0,1,587.7,123.2446Z" transform="translate(0.001 -0.0005)"/><rect class="cls-3" x="141.8594" y="123.2441" width="32.3301" height="61.6329"/><path class="cls-3" d="M131.7568,125.0181l-1.7949,12.6777a148.3636,148.3636,0,0,0-24.6523-2.0742c-14.1153,0-17.3535,1.3379-17.3535,5.8945,0,3.07,2.5107,4.5977,6.6914,4.9688l19.416,1.7168c11.3261,1.0019,20.5459,6.2168,20.5459,17.9883,0,11.2578-8.9678,16.8613-14.5381,18.1816-4.69,1.1094-12.501,2.0234-24.4609,2.0234a182.8181,182.8181,0,0,1-35.6045-3.289l1.7978-12.68a170.2034,170.2034,0,0,0,26.3682,2.1172c13.1924,0,18.4677-.6914,18.4677-6.416,0-3.3633-2.9628-4.6856-6.9941-5.045l-21.0586-1.8671c-11.2246-.9981-19.6142-7.3575-19.6142-17.5508,0-14.5723,12.2548-19.9336,38.4951-19.9336A169.0021,169.0021,0,0,1,131.7568,125.0181Z" transform="translate(0.001 -0.0005)"/><path class="cls-3" d="M348.4775,147.9986v34.207a194.9661,194.9661,0,0,1-40.11,4.1894c-38.4912,0-44.2549-14.7011-44.2549-32.3906,0-14.1328,5.4971-32.2734,44.2549-32.2734a182.1716,182.1716,0,0,1,35.6055,3.2988l-1.7979,12.7168a151.3739,151.3739,0,0,0-24.9482-2.123s-22.0616-1.84-22.0616,18.7011c0,18.4512,10.7588,19.4629,15.9288,19.4629a53.3717,53.3717,0,0,0,7.7031-.7305V158.104h-7.7022V147.9986Z" transform="translate(0.001 -0.0005)"/><rect class="cls-3" x="522.2647" y="123.2441" width="32.331" height="61.6329"/><path class="cls-3" d="M511.6436,123.2446l.0019,57.7129a4.0028,4.0028,0,0,1-4.042,3.92H473.707l-20.1523-42.17v42.17H439.9141l.0009-57.5918a4.0417,4.0417,0,0,1,4.042-4.0411h33.96l20.0879,42.0372V123.2446Z" transform="translate(0.001 -0.0005)"/><path class="cls-2" d="M654.0078,129.9326a7.3013,7.3013,0,1,1-7.1846-7.291A7.2688,7.2688,0,0,1,654.0078,129.9326Zm-11.9746-3.9209a5.9789,5.9789,0,0,0-1.4414,3.8789,6.1149,6.1149,0,1,0,6.21-6.0615A5.9937,5.9937,0,0,0,642.0332,126.0117Zm7.6934,8.2452h-1.4834l-2.1836-3.2012v3.2012h-1.208v-8.4786h1.4414a2.89,2.89,0,0,1,1.8652.4668,2.3248,2.3248,0,0,1,.9326,1.9493,2.1812,2.1812,0,0,1-1.95,2.31Zm-3.2852-4.8536c.9326,0,1.42-.4238,1.42-1.23,0-.8476-.4658-1.2294-1.5263-1.2294H646.06v2.4589Z" transform="translate(0.001 -0.0005)"/></g></svg>